# xmcd
#
# Track frame offsets:
#	150
#	25130
#	48495
#	69842
#	95797
#	112967
#	139722
#	164082
#	185202
#	213785
#
# Disc length: 3033 seconds
#
# Revision: 4
# Processed by: cddbd v1.5.2PL0 Copyright (c) Steve Scherf et al.
# Submitted via: EasyCDDAExtractor 12.0.1.1
#
DISCID=8e0bd70a
DTITLE=齐秦 - 狼
DYEAR=1985
DGENRE=Pop
TTITLE0=狼
TTITLE1=原来的我
TTITLE2=太阳雨
TTITLE3=曾几何时
TTITLE4=被遗忘的......
TTITLE5=垭口
TTITLE6=不必勉强
TTITLE7=异乡游子
TTITLE8=岁月休止符
TTITLE9=狂想
EXTD=
EXTT0=
EXTT1=
EXTT2=
EXTT3=
EXTT4=
EXTT5=
EXTT6=
EXTT7=
EXTT8=
EXTT9=
PLAYORDER=
